<svg xmlns="http://www.w3.org/2000/svg" width="16" height="16" viewBox="0 0 16 16">
    <g fill="none" fill-rule="evenodd" stroke="#FFF" transform="translate(1)">
        <path d="M5.215 13.594a1.454 1.454 0 0 0-.013.193c0 .869.767 1.573 1.714 1.573.946 0 1.714-.704 1.714-1.573 0-.066-.005-.13-.014-.193h-3.4zM12.434 10.931h-.018a1.042 1.042 0 0 1-.774-.994v-2.64-.009l.002-.148c0-2.52-2.123-4.564-4.741-4.564-2.62 0-4.742 2.043-4.742 4.564l.001.093-.001.063v2.641c0 .471-.327.869-.775.994h-.018c-.755 0-1.368.59-1.368 1.317 0 .728.613 1.318 1.368 1.318h11.066c.756 0 1.368-.59 1.368-1.318 0-.727-.612-1.317-1.368-1.317"/>
        <ellipse cx="7" cy="1.588" rx="1" ry="1"/>
    </g>
</svg>
