<svg xmlns="http://www.w3.org/2000/svg" width="104" height="104" viewBox="0 0 104 104">
    <defs>
        <filter id="a" width="248.5%" height="184.6%" x="-73.8%" y="-42.3%" filterUnits="objectBoundingBox">
            <feOffset in="SourceAlpha" result="shadowOffsetOuter1"/>
            <feGaussianBlur in="shadowOffsetOuter1" result="shadowBlurOuter1" stdDeviation="25"/>
            <feColorMatrix in="shadowBlurOuter1" result="shadowMatrixOuter1" values="0 0 0 0 0 0 0 0 0 0 0 0 0 0 0 0 0 0 0.2 0"/>
            <feMerge>
                <feMergeNode in="shadowMatrixOuter1"/>
                <feMergeNode in="SourceGraphic"/>
            </feMerge>
        </filter>
    </defs>
    <path fill="#F5A623" fill-rule="evenodd" d="M19.305 21.958l-2.563-1.48a.487.487 0 0 1-.243-.422v-3.01L13 15.062v6.827c0 .29.155.558.406.703l5.899 3.406v-4.04zm3.456-4.914v3.013a.487.487 0 0 1-.243.421L19.95 21.96V26l5.903-3.408a.811.811 0 0 0 .406-.703V15.06l-3.5 1.984zm-5.862-.553l2.487-1.436a.488.488 0 0 1 .487 0l2.465 1.423 3.534-2-5.837-3.37a.81.81 0 0 0-.811 0l-5.844 3.375 3.519 2.008z" filter="url(#a)" transform="translate(32 33)"/>
</svg>
