<?xml version="1.0" encoding="UTF-8"?>
<svg width="30px" height="30px" viewBox="0 0 30 30" version="1.1" xmlns="http://www.w3.org/2000/svg" xmlns:xlink="http://www.w3.org/1999/xlink">
    <!-- Generator: Sketch 57.1 (83088) - https://sketch.com -->
    <title>like</title>
    <desc>Created with Sketch.</desc>
    <g id="Maquetas" stroke="none" stroke-width="1" fill="none" fill-rule="evenodd">
        <g id="Desktop-hovers" transform="translate(-950.000000, -1315.000000)" stroke="#FFFFFF">
            <g id="Hover" transform="translate(736.000000, 1147.000000)">
                <g id="like" transform="translate(214.000000, 168.000000)">
                    <g>
                        <rect id="Rectangle" x="0.5" y="0.5" width="29" height="29" rx="14.5"></rect>
                        <path d="M22,12.8491875 C22,12.135 21.4249517,11.551625 20.7258266,11.551625 L16.7179866,11.551625 L17.3550733,8.561625 L17.3550733,8.365 C17.3550733,8.1041875 17.227815,7.8441875 17.1005568,7.6508125 L16.3982502,7 L12.2003181,11.2908125 C11.9458016,11.485 11.8185433,11.811625 11.8185433,12.198375 L11.8185433,18.698375 C11.8185433,19.4158125 12.3904102,20 13.0887399,20 L18.8185433,20 C19.3251903,20 19.772185,19.6758125 19.9614816,19.2191875 L21.8727417,14.6041875 C21.9347801,14.4741875 22,12.8491875 22,12.8491875 C22,12.9158125 22,12.8491875 22,12.8491875 L22,12.8491875 Z M8,20 L10.54437,20 L10.54437,12.198375 L8,12.198375 L8,20 Z" id="Fill-1"></path>
                    </g>
                </g>
            </g>
        </g>
    </g>
</svg>