<svg xmlns="http://www.w3.org/2000/svg" xmlns:xlink="http://www.w3.org/1999/xlink" width="95" height="27" viewBox="0 0 95 27">
    <defs>
        <path id="a" d="M0 .19h4.99V26H0z"/>
        <path id="c" d="M.135.194h4.782v4.782H.135z"/>
        <path id="e" d="M.135.166h4.782V19H.135z"/>
        <path id="g" d="M.104.19h4.783V26H.104z"/>
        <path id="i" d="M.03.194h4.783v4.782H.03z"/>
        <path id="k" d="M.03.166h4.783V19H.03z"/>
        <path id="m" d="M.07.178h11.765V24H.07z"/>
        <path id="o" d="M.077.167h14.785V19H.077z"/>
        <path id="q" d="M.083.166h15.822V19H.083z"/>
    </defs>
    <g fill="none" fill-rule="evenodd">
        <mask id="b" fill="#fff">
            <use xlink:href="#a"/>
        </mask>
        <path fill="#F00" d="M4.165 26H.825C.275 26 0 25.743 0 25.23V.96C0 .446.275.19.825.19h3.34c.55 0 .825.256.825.77v24.269c0 .514-.275.771-.825.771" mask="url(#b)"/>
        <g transform="translate(9)">
            <mask id="d" fill="#fff">
                <use xlink:href="#c"/>
            </mask>
            <path fill="#F00" d="M.135 4.223V.947c0-.502.25-.753.752-.753h3.277c.502 0 .753.239.753.715v3.314c0 .503-.251.753-.753.753H.888c-.503 0-.753-.25-.753-.753" mask="url(#d)"/>
        </g>
        <g transform="translate(9 7)">
            <mask id="f" fill="#fff">
                <use xlink:href="#e"/>
            </mask>
            <path fill="#F00" d="M.135 18.224V.942c0-.517.25-.776.752-.776h3.239c.527 0 .791.259.791.776v17.282c0 .32-.056.53-.17.628-.112.099-.307.148-.583.148H.925c-.527 0-.79-.259-.79-.776" mask="url(#f)"/>
        </g>
        <g transform="translate(62)">
            <mask id="h" fill="#fff">
                <use xlink:href="#g"/>
            </mask>
            <path fill="#F00" d="M4.096 26H.895c-.528 0-.79-.257-.79-.771V.96c0-.514.262-.77.79-.77h3.2c.528 0 .792.256.792.77v24.269c0 .514-.264.771-.791.771" mask="url(#h)"/>
        </g>
        <g transform="translate(71)">
            <mask id="j" fill="#fff">
                <use xlink:href="#i"/>
            </mask>
            <path fill="#F00" d="M.03 4.223V.947C.03.445.28.194.784.194H4.06c.501 0 .753.239.753.715v3.314c0 .503-.251.753-.753.753H.783c-.502 0-.752-.25-.752-.753" mask="url(#j)"/>
        </g>
        <g transform="translate(71 7)">
            <mask id="l" fill="#fff">
                <use xlink:href="#k"/>
            </mask>
            <path fill="#F00" d="M.03 18.224V.942C.03.425.28.166.784.166h3.239c.527 0 .79.259.79.776v17.282c0 .32-.055.53-.169.628-.112.099-.308.148-.583.148H.82c-.527 0-.79-.259-.79-.776" mask="url(#l)"/>
        </g>
        <g transform="translate(16 2)">
            <mask id="n" fill="#fff">
                <use xlink:href="#m"/>
            </mask>
            <path fill="#F00" d="M2.313 9.041H.843c-.294 0-.496-.05-.607-.15-.11-.099-.165-.299-.165-.598v-2.58c0-.524.257-.786.772-.786h1.47c.27 0 .405-.136.405-.411V.963c0-.523.27-.785.809-.785h3.088c.514 0 .772.262.772.785v3.553c0 .275.147.411.44.411h2.868c.515 0 .773.262.773.786v2.58c0 .275-.055.468-.166.58-.11.112-.312.168-.607.168H7.828c-.294 0-.441.138-.441.412v8.264c0 .774.17 1.328.514 1.665.343.337.907.505 1.691.505h1.471c.514 0 .772.261.772.785v2.58c0 .275-.055.467-.166.58-.11.112-.312.168-.606.168H8.82c-1.936 0-3.437-.524-4.503-1.57-1.066-1.048-1.6-2.543-1.6-4.488v-8.49c0-.273-.135-.41-.404-.41" mask="url(#n)"/>
        </g>
        <path fill="#F00" d="M49.287 10.817c.275 0 .413-.138.413-.414v-2.3c0-1.959.544-3.466 1.631-4.52C52.418 2.527 53.95 2 55.925 2h2.288c.3 0 .506.057.618.17.113.113.169.307.169.584v2.6c0 .527-.263.79-.787.79h-1.5c-.8 0-1.376.17-1.725.509-.351.339-.526.897-.526 1.676v2.073c0 .277.15.415.45.415h2.926c.3 0 .506.057.619.17.112.113.169.307.169.584v2.6c0 .527-.263.79-.788.79h-2.925c-.3 0-.45.139-.45.415v9.833c0 .527-.263.791-.788.791h-3.15c-.55 0-.825-.264-.825-.791v-9.833c0-.276-.138-.414-.413-.414h-1.5c-.524 0-.787-.264-.787-.792v-2.6c0-.3.056-.502.169-.602.112-.1.319-.15.618-.15h1.5z"/>
        <g transform="translate(31 7)">
            <mask id="p" fill="#fff">
                <use xlink:href="#o"/>
            </mask>
            <path fill="#F00" d="M4.631 6.333c0-.787.157-1.34.47-1.66.313-.32.855-.481 1.627-.481h1.519c.77 0 1.313.16 1.626.48.313.32.47.874.47 1.661v1.773c0 .272-.133.407-.398.407H5.03c-.265 0-.397-.135-.398-.407V6.333zm.398 5.319h9.074c.506 0 .759-.259.759-.776v-4.69c0-1.944-.518-3.435-1.554-4.468C12.27.684 10.8.167 8.898.167H6.04c-1.904 0-3.374.517-4.41 1.55C.594 2.752.077 4.243.077 6.187v6.795c0 1.945.517 3.434 1.554 4.469C2.667 18.483 4.137 19 6.041 19h7.99c.289 0 .488-.055.596-.167.108-.11.163-.3.163-.572v-2.437c0-.541-.254-.812-.76-.812H6.729c-.772 0-1.32-.166-1.645-.498-.325-.333-.488-.88-.488-1.644v-.813c0-.27.145-.405.434-.405z" mask="url(#p)"/>
        </g>
        <g transform="translate(79 7)">
            <mask id="r" fill="#fff">
                <use xlink:href="#q"/>
            </mask>
            <path fill="#F00" d="M4.488 19H.743c-.643 0-.816-.259-.52-.776L4.895 9.4.224.942C-.024.425.124.166.669.166H4.45c.593 0 .976.26 1.149.776l2.336 5.613h.148l2.04-5.613c.172-.517.556-.776 1.149-.776h3.708c.642 0 .803.26.482.776L11.013 9.4l4.783 8.825c.124.222.142.406.056.554-.087.148-.254.222-.5.222h-3.82c-.518 0-.89-.259-1.112-.776l-2.336-5.65h-.148L5.6 18.224c-.173.517-.544.776-1.112.776" mask="url(#r)"/>
        </g>
    </g>
</svg>
